<svg xmlns="http://www.w3.org/2000/svg" viewBox="0 0 900 1728">
    <defs>
    <linearGradient id="spine" x1="0" x2="1" y1="0" y2="0">
      <stop offset="0%" stop-color="#000" stop-opacity="0.180"/>
      <stop offset="50%" stop-color="#000" stop-opacity="0.45"/>
      <stop offset="100%" stop-color="#000" stop-opacity="0.180"/>
    </linearGradient>
  </defs>
    <g transform="translate(0, 0)"><rect x="20" y="20" width="860" height="520" fill="#f7ecd3" rx="6"/>
    <rect x="440" y="20" width="20" height="520" fill="url(#spine)"/><g transform="translate(60, 60)" fill="#3a2a15" font-family="'Courier New', Menlo, monospace">
    <circle cx="180" cy="30" r="18" fill="none" stroke="#3a2a15" stroke-width="2"/>
    <text x="180" y="36" text-anchor="middle" font-size="16" font-weight="bold">T</text>
    <text x="180" y="80" text-anchor="middle" font-size="14" letter-spacing="4" font-weight="bold">TOWN PASSPORT</text>
    <line x1="40" y1="95" x2="320" y2="95" stroke="#3a2a15" stroke-width="1" opacity="0.4"/>
    <rect x="20" y="115" width="130" height="150" fill="none" stroke="#3a2a15" stroke-width="2" stroke-dasharray="4 4" opacity="0.5"/>
    <text x="85" y="200" text-anchor="middle" font-size="32" font-weight="bold" opacity="0.35">HM</text>
    <g font-size="9">
      <text x="175" y="130" opacity="0.6" letter-spacing="1">NAME / NOM</text>
      <text x="175" y="148" font-size="14" font-weight="bold">HARSHITH MULLAPUDI</text>
      <text x="175" y="180" opacity="0.6" letter-spacing="1">PASSPORT NO / N°</text>
      <text x="175" y="197" font-size="13" font-weight="bold" letter-spacing="1">TP-2026-000042</text>
      <text x="175" y="225" opacity="0.6" letter-spacing="1">ISSUED / DÉLIVRÉ</text>
      <text x="175" y="242" font-size="12">12 · JUL · 2026</text>
      <text x="175" y="270" opacity="0.6" letter-spacing="1">TOWNS OWNED</text>
      <text x="175" y="287" font-size="13" font-weight="bold">3 TOWNS</text>
    </g>
    <line x1="20" y1="325" x2="360" y2="325" stroke="#3a2a15" stroke-width="1" opacity="0.4"/>
    <text x="20" y="340" font-size="8" opacity="0.6" letter-spacing="1">SIGNATURE / SIGNATURE</text>
    <text x="360" y="340" font-size="8" opacity="0.6" text-anchor="end" letter-spacing="1">PAGE 1</text>
    <g font-size="9" letter-spacing="2" opacity="0.85">
      <text x="20" y="380">P&lt;TOWNHARSHITH&lt;&lt;MULLAPUDI&lt;&lt;&lt;&lt;&lt;&lt;&lt;&lt;&lt;&lt;&lt;&lt;&lt;&lt;&lt;&lt;&lt;&lt;&lt;&lt;&lt;&lt;&lt;</text>
      <text x="20" y="395">202600004&lt;6TOWN260712&lt;&lt;&lt;&lt;&lt;&lt;&lt;&lt;&lt;20</text>
    </g>
  </g><text x="660" y="90" text-anchor="middle" fill="#3a2a15" font-family="'Courier New', Menlo, monospace" font-size="14" letter-spacing="4" font-weight="bold">TOWNS VISITED</text>
    <line x1="520" y1="102" x2="800" y2="102" stroke="#3a2a15" stroke-width="1" opacity="0.4"/><g transform="translate(550, 165) rotate(-7)">
    <circle cx="0" cy="0" r="45" fill="none" stroke="#c46b1e" stroke-width="3" opacity="0.85"/>
    <circle cx="0" cy="0" r="40" fill="none" stroke="#c46b1e" stroke-width="1" opacity="0.6"/>
    <text x="0" y="-12" text-anchor="middle" font-size="10" fill="#c46b1e" font-weight="bold" letter-spacing="1">CORE TOWN</text>
    <text x="0" y="6" text-anchor="middle" font-size="14" fill="#c46b1e">✦</text>
    <text x="0" y="24" text-anchor="middle" font-size="7" fill="#c46b1e" letter-spacing="1">12·JUL·26</text>
  </g>
<g transform="translate(680, 175) rotate(-2)">
    <circle cx="0" cy="0" r="45" fill="none" stroke="#8a5a1e" stroke-width="3" opacity="0.85"/>
    <circle cx="0" cy="0" r="40" fill="none" stroke="#8a5a1e" stroke-width="1" opacity="0.6"/>
    <text x="0" y="-12" text-anchor="middle" font-size="10" fill="#8a5a1e" font-weight="bold" letter-spacing="1">MYSTERY</text>
    <text x="0" y="6" text-anchor="middle" font-size="14" fill="#8a5a1e">★</text>
    <text x="0" y="24" text-anchor="middle" font-size="7" fill="#8a5a1e" letter-spacing="1">13·JUL·26</text>
  </g>
<g transform="translate(800, 165) rotate(-6)">
    <circle cx="0" cy="0" r="45" fill="none" stroke="#4a7f3f" stroke-width="3" opacity="0.85"/>
    <circle cx="0" cy="0" r="40" fill="none" stroke="#4a7f3f" stroke-width="1" opacity="0.6"/>
    <text x="0" y="-12" text-anchor="middle" font-size="10" fill="#4a7f3f" font-weight="bold" letter-spacing="1">STARTUP</text>
    <text x="0" y="6" text-anchor="middle" font-size="14" fill="#4a7f3f">◆</text>
    <text x="0" y="24" text-anchor="middle" font-size="7" fill="#4a7f3f" letter-spacing="1">14·JUL·26</text>
  </g>
<g transform="translate(560, 295) rotate(8)">
    <circle cx="0" cy="0" r="45" fill="none" stroke="#c46b1e" stroke-width="3" opacity="0.85"/>
    <circle cx="0" cy="0" r="40" fill="none" stroke="#c46b1e" stroke-width="1" opacity="0.6"/>
    <text x="0" y="-12" text-anchor="middle" font-size="10" fill="#c46b1e" font-weight="bold" letter-spacing="1">ROAST</text>
    <text x="0" y="6" text-anchor="middle" font-size="14" fill="#c46b1e">✦</text>
    <text x="0" y="24" text-anchor="middle" font-size="7" fill="#c46b1e" letter-spacing="1">15·JUL·26</text>
  </g>
<g transform="translate(690, 290) rotate(-4)">
    <circle cx="0" cy="0" r="45" fill="none" stroke="#3a6ea5" stroke-width="3" opacity="0.85"/>
    <circle cx="0" cy="0" r="40" fill="none" stroke="#3a6ea5" stroke-width="1" opacity="0.6"/>
    <text x="0" y="-12" text-anchor="middle" font-size="10" fill="#3a6ea5" font-weight="bold" letter-spacing="1">INTERVIEW</text>
    <text x="0" y="6" text-anchor="middle" font-size="14" fill="#3a6ea5">▲</text>
    <text x="0" y="24" text-anchor="middle" font-size="7" fill="#3a6ea5" letter-spacing="1">16·JUL·26</text>
  </g>
<g transform="translate(800, 300) rotate(7)">
    <circle cx="0" cy="0" r="45" fill="none" stroke="#8b3030" stroke-width="3" opacity="0.85"/>
    <circle cx="0" cy="0" r="40" fill="none" stroke="#8b3030" stroke-width="1" opacity="0.6"/>
    <text x="0" y="-12" text-anchor="middle" font-size="10" fill="#8b3030" font-weight="bold" letter-spacing="1">TENKAI</text>
    <text x="0" y="6" text-anchor="middle" font-size="14" fill="#8b3030">✕</text>
    <text x="0" y="24" text-anchor="middle" font-size="7" fill="#8b3030" letter-spacing="1">17·JUL·26</text>
  </g><text x="840" y="475" font-family="'Courier New', Menlo, monospace" font-size="8" fill="#3a2a15" opacity="0.6" text-anchor="end" letter-spacing="1">PAGE 1</text></g>
<g transform="translate(0, 584)"><rect x="20" y="20" width="860" height="520" fill="#f7ecd3" rx="6"/>
    <rect x="440" y="20" width="20" height="520" fill="url(#spine)"/><text x="240" y="90" text-anchor="middle" fill="#3a2a15" font-family="'Courier New', Menlo, monospace" font-size="14" letter-spacing="4" font-weight="bold">TOWNS VISITED</text>
    <line x1="100" y1="102" x2="380" y2="102" stroke="#3a2a15" stroke-width="1" opacity="0.4"/><g transform="translate(130, 165) rotate(-10)">
    <circle cx="0" cy="0" r="45" fill="none" stroke="#7a2e6a" stroke-width="3" opacity="0.85"/>
    <circle cx="0" cy="0" r="40" fill="none" stroke="#7a2e6a" stroke-width="1" opacity="0.6"/>
    <text x="0" y="-12" text-anchor="middle" font-size="9" fill="#7a2e6a" font-weight="bold" letter-spacing="1">CAFE VERDE</text>
    <text x="0" y="6" text-anchor="middle" font-size="14" fill="#7a2e6a">✿</text>
    <text x="0" y="24" text-anchor="middle" font-size="7" fill="#7a2e6a" letter-spacing="1">18·JUL·26</text>
  </g>
<g transform="translate(260, 175) rotate(-6)">
    <circle cx="0" cy="0" r="45" fill="none" stroke="#c46b1e" stroke-width="3" opacity="0.85"/>
    <circle cx="0" cy="0" r="40" fill="none" stroke="#c46b1e" stroke-width="1" opacity="0.6"/>
    <text x="0" y="-12" text-anchor="middle" font-size="10" fill="#c46b1e" font-weight="bold" letter-spacing="1">HARBOR</text>
    <text x="0" y="6" text-anchor="middle" font-size="14" fill="#c46b1e">✦</text>
    <text x="0" y="24" text-anchor="middle" font-size="7" fill="#c46b1e" letter-spacing="1">19·JUL·26</text>
  </g>
<g transform="translate(380, 165) rotate(4)">
    <circle cx="0" cy="0" r="45" fill="none" stroke="#c46b1e" stroke-width="3" opacity="0.85"/>
    <circle cx="0" cy="0" r="40" fill="none" stroke="#c46b1e" stroke-width="1" opacity="0.6"/>
    <text x="0" y="-12" text-anchor="middle" font-size="10" fill="#c46b1e" font-weight="bold" letter-spacing="1">ATELIER</text>
    <text x="0" y="6" text-anchor="middle" font-size="14" fill="#c46b1e">✦</text>
    <text x="0" y="24" text-anchor="middle" font-size="7" fill="#c46b1e" letter-spacing="1">20·JUL·26</text>
  </g>
<g transform="translate(140, 295) rotate(-10)">
    <circle cx="0" cy="0" r="45" fill="none" stroke="#3a6ea5" stroke-width="3" opacity="0.85"/>
    <circle cx="0" cy="0" r="40" fill="none" stroke="#3a6ea5" stroke-width="1" opacity="0.6"/>
    <text x="0" y="-12" text-anchor="middle" font-size="10" fill="#3a6ea5" font-weight="bold" letter-spacing="1">ARCADIA</text>
    <text x="0" y="6" text-anchor="middle" font-size="14" fill="#3a6ea5">▲</text>
    <text x="0" y="24" text-anchor="middle" font-size="7" fill="#3a6ea5" letter-spacing="1">21·JUL·26</text>
  </g>
<g transform="translate(270, 290) rotate(2)">
    <circle cx="0" cy="0" r="45" fill="none" stroke="#4a7f3f" stroke-width="3" opacity="0.85"/>
    <circle cx="0" cy="0" r="40" fill="none" stroke="#4a7f3f" stroke-width="1" opacity="0.6"/>
    <text x="0" y="-12" text-anchor="middle" font-size="9" fill="#4a7f3f" font-weight="bold" letter-spacing="1">GILDED FOX</text>
    <text x="0" y="6" text-anchor="middle" font-size="14" fill="#4a7f3f">◆</text>
    <text x="0" y="24" text-anchor="middle" font-size="7" fill="#4a7f3f" letter-spacing="1">22·JUL·26</text>
  </g>
<g transform="translate(380, 300) rotate(6)">
      <rect x="-48" y="-32" width="96" height="64" fill="none" stroke="#7a2e6a" stroke-width="3" opacity="0.85"/>
      <rect x="-44" y="-28" width="88" height="56" fill="none" stroke="#7a2e6a" stroke-width="1" opacity="0.6"/>
      <text x="0" y="-10" text-anchor="middle" font-size="11" fill="#7a2e6a" font-weight="bold" letter-spacing="2">NIGHTINGALE</text>
      <text x="0" y="6" text-anchor="middle" font-size="12" fill="#7a2e6a">✿</text>
      <text x="0" y="22" text-anchor="middle" font-size="7" fill="#7a2e6a" letter-spacing="1">23·JUL·26</text>
    </g><text x="80" y="475" font-family="'Courier New', Menlo, monospace" font-size="8" fill="#3a2a15" opacity="0.6" text-anchor="start" letter-spacing="1">PAGE 2</text><text x="660" y="90" text-anchor="middle" fill="#3a2a15" font-family="'Courier New', Menlo, monospace" font-size="14" letter-spacing="4" font-weight="bold">TOWNS VISITED</text>
    <line x1="520" y1="102" x2="800" y2="102" stroke="#3a2a15" stroke-width="1" opacity="0.4"/><g transform="translate(550, 165) rotate(7)">
    <circle cx="0" cy="0" r="45" fill="none" stroke="#4a7f3f" stroke-width="3" opacity="0.85"/>
    <circle cx="0" cy="0" r="40" fill="none" stroke="#4a7f3f" stroke-width="1" opacity="0.6"/>
    <text x="0" y="-12" text-anchor="middle" font-size="9" fill="#4a7f3f" font-weight="bold" letter-spacing="1">CINDER HALL</text>
    <text x="0" y="6" text-anchor="middle" font-size="14" fill="#4a7f3f">◆</text>
    <text x="0" y="24" text-anchor="middle" font-size="7" fill="#4a7f3f" letter-spacing="1">24·JUL·26</text>
  </g>
<g transform="translate(680, 175) rotate(7)">
    <circle cx="0" cy="0" r="45" fill="none" stroke="#2f6e6a" stroke-width="3" opacity="0.85"/>
    <circle cx="0" cy="0" r="40" fill="none" stroke="#2f6e6a" stroke-width="1" opacity="0.6"/>
    <text x="0" y="-12" text-anchor="middle" font-size="10" fill="#2f6e6a" font-weight="bold" letter-spacing="1">KITE PARK</text>
    <text x="0" y="6" text-anchor="middle" font-size="14" fill="#2f6e6a">●</text>
    <text x="0" y="24" text-anchor="middle" font-size="7" fill="#2f6e6a" letter-spacing="1">25·JUL·26</text>
  </g>
<g transform="translate(800, 165) rotate(-2)">
    <circle cx="0" cy="0" r="45" fill="none" stroke="#7a2e6a" stroke-width="3" opacity="0.85"/>
    <circle cx="0" cy="0" r="40" fill="none" stroke="#7a2e6a" stroke-width="1" opacity="0.6"/>
    <text x="0" y="-12" text-anchor="middle" font-size="10" fill="#7a2e6a" font-weight="bold" letter-spacing="1">AURORA</text>
    <text x="0" y="6" text-anchor="middle" font-size="14" fill="#7a2e6a">✿</text>
    <text x="0" y="24" text-anchor="middle" font-size="7" fill="#7a2e6a" letter-spacing="1">26·JUL·26</text>
  </g>
<g transform="translate(560, 295) rotate(3)">
    <circle cx="0" cy="0" r="45" fill="none" stroke="#5a4d8a" stroke-width="3" opacity="0.85"/>
    <circle cx="0" cy="0" r="40" fill="none" stroke="#5a4d8a" stroke-width="1" opacity="0.6"/>
    <text x="0" y="-12" text-anchor="middle" font-size="9" fill="#5a4d8a" font-weight="bold" letter-spacing="1">WREN &amp; TIDE</text>
    <text x="0" y="6" text-anchor="middle" font-size="14" fill="#5a4d8a">◆</text>
    <text x="0" y="24" text-anchor="middle" font-size="7" fill="#5a4d8a" letter-spacing="1">27·JUL·26</text>
  </g>
<g transform="translate(690, 290) rotate(4)">
    <circle cx="0" cy="0" r="45" fill="none" stroke="#2f6e6a" stroke-width="3" opacity="0.85"/>
    <circle cx="0" cy="0" r="40" fill="none" stroke="#2f6e6a" stroke-width="1" opacity="0.6"/>
    <text x="0" y="-12" text-anchor="middle" font-size="9" fill="#2f6e6a" font-weight="bold" letter-spacing="1">OPAL STREET</text>
    <text x="0" y="6" text-anchor="middle" font-size="14" fill="#2f6e6a">●</text>
    <text x="0" y="24" text-anchor="middle" font-size="7" fill="#2f6e6a" letter-spacing="1">28·JUL·26</text>
  </g>
<g transform="translate(800, 300) rotate(-6)">
    <circle cx="0" cy="0" r="45" fill="none" stroke="#5a4d8a" stroke-width="3" opacity="0.85"/>
    <circle cx="0" cy="0" r="40" fill="none" stroke="#5a4d8a" stroke-width="1" opacity="0.6"/>
    <text x="0" y="-12" text-anchor="middle" font-size="9" fill="#5a4d8a" font-weight="bold" letter-spacing="1">MOSS + MARROW</text>
    <text x="0" y="6" text-anchor="middle" font-size="14" fill="#5a4d8a">◆</text>
    <text x="0" y="24" text-anchor="middle" font-size="7" fill="#5a4d8a" letter-spacing="1">29·JUL·26</text>
  </g><text x="840" y="475" font-family="'Courier New', Menlo, monospace" font-size="8" fill="#3a2a15" opacity="0.6" text-anchor="end" letter-spacing="1">PAGE 3</text></g>
<g transform="translate(0, 1168)"><rect x="20" y="20" width="860" height="520" fill="#f7ecd3" rx="6"/>
    <rect x="440" y="20" width="20" height="520" fill="url(#spine)"/><text x="240" y="90" text-anchor="middle" fill="#3a2a15" font-family="'Courier New', Menlo, monospace" font-size="14" letter-spacing="4" font-weight="bold">TOWNS VISITED</text>
    <line x1="100" y1="102" x2="380" y2="102" stroke="#3a2a15" stroke-width="1" opacity="0.4"/><g transform="translate(130, 165) rotate(9)">
    <circle cx="0" cy="0" r="45" fill="none" stroke="#3a6ea5" stroke-width="3" opacity="0.85"/>
    <circle cx="0" cy="0" r="40" fill="none" stroke="#3a6ea5" stroke-width="1" opacity="0.6"/>
    <text x="0" y="-12" text-anchor="middle" font-size="10" fill="#3a6ea5" font-weight="bold" letter-spacing="1">THE LOOM</text>
    <text x="0" y="6" text-anchor="middle" font-size="14" fill="#3a6ea5">▲</text>
    <text x="0" y="24" text-anchor="middle" font-size="7" fill="#3a6ea5" letter-spacing="1">30·JUL·26</text>
  </g>
<g transform="translate(260, 175) rotate(8)">
    <circle cx="0" cy="0" r="45" fill="none" stroke="#8a5a1e" stroke-width="3" opacity="0.85"/>
    <circle cx="0" cy="0" r="40" fill="none" stroke="#8a5a1e" stroke-width="1" opacity="0.6"/>
    <text x="0" y="-12" text-anchor="middle" font-size="10" fill="#8a5a1e" font-weight="bold" letter-spacing="1">RIVERBEND</text>
    <text x="0" y="6" text-anchor="middle" font-size="14" fill="#8a5a1e">★</text>
    <text x="0" y="24" text-anchor="middle" font-size="7" fill="#8a5a1e" letter-spacing="1">31·JUL·26</text>
  </g>
<g transform="translate(380, 165) rotate(-1)">
    <circle cx="0" cy="0" r="45" fill="none" stroke="#5a4d8a" stroke-width="3" opacity="0.85"/>
    <circle cx="0" cy="0" r="40" fill="none" stroke="#5a4d8a" stroke-width="1" opacity="0.6"/>
    <text x="0" y="-12" text-anchor="middle" font-size="9" fill="#5a4d8a" font-weight="bold" letter-spacing="1">SMALL HOURS</text>
    <text x="0" y="6" text-anchor="middle" font-size="14" fill="#5a4d8a">◆</text>
    <text x="0" y="24" text-anchor="middle" font-size="7" fill="#5a4d8a" letter-spacing="1">01·AUG·26</text>
  </g>
<g transform="translate(140, 295) rotate(-6)">
    <circle cx="0" cy="0" r="45" fill="none" stroke="#5a4d8a" stroke-width="3" opacity="0.85"/>
    <circle cx="0" cy="0" r="40" fill="none" stroke="#5a4d8a" stroke-width="1" opacity="0.6"/>
    <text x="0" y="-12" text-anchor="middle" font-size="10" fill="#5a4d8a" font-weight="bold" letter-spacing="1">POLIS</text>
    <text x="0" y="6" text-anchor="middle" font-size="14" fill="#5a4d8a">◆</text>
    <text x="0" y="24" text-anchor="middle" font-size="7" fill="#5a4d8a" letter-spacing="1">02·AUG·26</text>
  </g>
<g transform="translate(270, 290) rotate(-8)">
      <rect x="-48" y="-32" width="96" height="64" fill="none" stroke="#c46b1e" stroke-width="3" opacity="0.85"/>
      <rect x="-44" y="-28" width="88" height="56" fill="none" stroke="#c46b1e" stroke-width="1" opacity="0.6"/>
      <text x="0" y="-10" text-anchor="middle" font-size="11" fill="#c46b1e" font-weight="bold" letter-spacing="2">HARBORLIGHT</text>
      <text x="0" y="6" text-anchor="middle" font-size="12" fill="#c46b1e">✦</text>
      <text x="0" y="22" text-anchor="middle" font-size="7" fill="#c46b1e" letter-spacing="1">03·AUG·26</text>
    </g>
<g transform="translate(380, 300) rotate(1)">
    <circle cx="0" cy="0" r="45" fill="none" stroke="#7a2e6a" stroke-width="3" opacity="0.85"/>
    <circle cx="0" cy="0" r="40" fill="none" stroke="#7a2e6a" stroke-width="1" opacity="0.6"/>
    <text x="0" y="-12" text-anchor="middle" font-size="10" fill="#7a2e6a" font-weight="bold" letter-spacing="1">BONEYARD</text>
    <text x="0" y="6" text-anchor="middle" font-size="14" fill="#7a2e6a">✿</text>
    <text x="0" y="24" text-anchor="middle" font-size="7" fill="#7a2e6a" letter-spacing="1">04·AUG·26</text>
  </g><text x="80" y="475" font-family="'Courier New', Menlo, monospace" font-size="8" fill="#3a2a15" opacity="0.6" text-anchor="start" letter-spacing="1">PAGE 4</text><text x="660" y="90" text-anchor="middle" fill="#3a2a15" font-family="'Courier New', Menlo, monospace" font-size="14" letter-spacing="4" font-weight="bold">TOWNS VISITED</text>
    <line x1="520" y1="102" x2="800" y2="102" stroke="#3a2a15" stroke-width="1" opacity="0.4"/><g transform="translate(550, 165) rotate(-2)">
    <circle cx="0" cy="0" r="45" fill="none" stroke="#5a4d8a" stroke-width="3" opacity="0.85"/>
    <circle cx="0" cy="0" r="40" fill="none" stroke="#5a4d8a" stroke-width="1" opacity="0.6"/>
    <text x="0" y="-12" text-anchor="middle" font-size="10" fill="#5a4d8a" font-weight="bold" letter-spacing="1">CLOCKWORK</text>
    <text x="0" y="6" text-anchor="middle" font-size="14" fill="#5a4d8a">◆</text>
    <text x="0" y="24" text-anchor="middle" font-size="7" fill="#5a4d8a" letter-spacing="1">05·AUG·26</text>
  </g><g transform="translate(680, 175)" opacity="0.2">
      <circle cx="0" cy="0" r="42" fill="none" stroke="#3a2a15" stroke-width="2" stroke-dasharray="6 6"/>
      <text x="0" y="4" text-anchor="middle" font-family="'Courier New', Menlo, monospace" font-size="8" fill="#3a2a15" letter-spacing="1">NEXT STAMP</text>
    </g><text x="660" y="440" text-anchor="middle" font-family="'Courier New', Menlo, monospace" font-size="8" fill="#3a2a15" opacity="0.55" letter-spacing="2">— 25 STAMPS —</text><text x="840" y="475" font-family="'Courier New', Menlo, monospace" font-size="8" fill="#3a2a15" opacity="0.6" text-anchor="end" letter-spacing="1">PAGE 5</text></g>
  </svg>